<svg xmlns="http://www.w3.org/2000/svg" width="400" height="300" viewBox="0 0 400 300">
  <defs>
    <linearGradient id="uploadGradient" x1="0%" y1="0%" x2="100%" y2="100%">
      <stop offset="0%" style="stop-color:#6EE7B7;stop-opacity:0.9" />
      <stop offset="100%" style="stop-color:#3B82F6;stop-opacity:0.9" />
    </linearGradient>
    <filter id="shadow" x="-20%" y="-20%" width="140%" height="140%">
      <feGaussianBlur in="SourceAlpha" stdDeviation="3" />
      <feOffset dx="2" dy="2" result="offsetblur" />
      <feComponentTransfer>
        <feFuncA type="linear" slope="0.3" />
      </feComponentTransfer>
      <feMerge>
        <feMergeNode />
        <feMergeNode in="SourceGraphic" />
      </feMerge>
    </filter>
  </defs>
  
  <!-- Background -->
  <rect x="0" y="0" width="400" height="300" fill="url(#uploadGradient)" rx="15" />
  
  <!-- Upload Cloud Icon -->
  <g transform="translate(175,100)" filter="url(#shadow)">
    <path d="M25,60 L25,40 L15,40 L30,20 L45,40 L35,40 L35,60 Z" fill="white" />
    <path d="M10,50 C-20,50 -20,20 10,20 C10,0 40,0 40,20 C70,20 70,50 40,50" stroke="white" fill="none" stroke-width="3" />
  </g>
  
  <!-- Animated Dots -->
  <g transform="translate(165,180)">
    <circle cx="0" cy="0" r="5" fill="white">
      <animate attributeName="opacity" values="0;1;0" dur="2s" repeatCount="indefinite" begin="0s" />
    </circle>
    <circle cx="35" cy="0" r="5" fill="white">
      <animate attributeName="opacity" values="0;1;0" dur="2s" repeatCount="indefinite" begin="0.3s" />
    </circle>
    <circle cx="70" cy="0" r="5" fill="white">
      <animate attributeName="opacity" values="0;1;0" dur="2s" repeatCount="indefinite" begin="0.6s" />
    </circle>
  </g>
  
  <!-- Text -->
  <text x="200" y="240" text-anchor="middle" fill="white" font-family="Arial, sans-serif" font-size="16">
    Drop your photos here or click to upload
  </text>
</svg>