<svg xmlns="http://www.w3.org/2000/svg" viewBox="0 0 24 24" fill="#FFFFFF"><path d="M12 0C5.373 0 0 5.373 0 12c0 2.625.846 5.059 2.284 7.034L.787 23.4l4.45-1.434A11.93 11.93 0 0012 24c6.627 0 12-5.373 12-12S18.627 0 12 0zM8.442 6.297h.065c.243 0 .597.014.85.434.253.42 1.159 2.03 1.159 2.03s.129.234.006.473c-.123.24-.184.387-.361.61-.178.224-.374.503-.536.675-.178.187-.363.391-.156.77.207.38.923 1.619 1.773 2.623 1.161 1.372 2.141 1.798 2.445 1.997.304.199.482.167.66-.076.178-.243.76-1.03.964-1.384.203-.354.406-.296.685-.178.279.119 1.778.974 2.082 1.15.304.177.507.265.583.41.076.146.076.836-.203 1.644-.279.807-1.645 1.587-2.26 1.644-.616.057-1.187.279-4.004-.836-3.402-1.406-5.562-5.09-5.731-5.321-.169-.232-1.391-2.159-1.391-4.112 0-1.954.871-2.914 1.18-3.309.309-.395.673-.496.899-.496z"/></svg>