<svg xmlns="http://www.w3.org/2000/svg" viewBox="0 0 400 300" fill="none"><rect width="400" height="300" fill="#FFF"/><path d="M120 80h160c11.046 0 20 8.954 20 20v120c0 11.046-8.954 20-20 20H120c-11.046 0-20-8.954-20-20V100c0-11.046 8.954-20 20-20z" fill="#3B82F6"/><path d="M140 120h120v80H140z" fill="#FFF"/><path d="M170 140l20 40 20-30 30 50" stroke="#3B82F6" stroke-width="4" stroke-linecap="round" stroke-linejoin="round"/><circle cx="180" cy="130" r="10" fill="#3B82F6"/><path d="M140 220h120M160 240h80" stroke="#9CA3AF" stroke-width="4" stroke-linecap="round"/><circle cx="320" cy="60" r="15" fill="#3B82F6" opacity="0.2"/><circle cx="80" cy="240" r="20" fill="#3B82F6" opacity="0.2"/></svg>